# xmcd
# 
# Track frame offsets:
#     150
#     20081
#     35131
#     52106
#     65649
#     81425
#     96820
#     110291
# 
# Disc length: 1854
# 
# Revision: 0
# Processed by: cddbd v1.5.2PL0 Copyright (c) Steve Scherf et al.
# Submitted via: fre:ac v1.0.17
# 
DISCID=70073c08
DTITLE=Maçã de Pedra - Maçã de Pedra
DYEAR=2013
DGENRE=Rock
TTITLE0=Não Tem Mais Como Controlar
TTITLE1=Alucinação
TTITLE2=Velha Rotina
TTITLE3=Veneno Fatal
TTITLE4=Outros Bem Afim
TTITLE5=Sinceridade
TTITLE6=Como é Que Vai?
TTITLE7=Sua Hora Vai Chegar
EXTD=
EXTT0=
EXTT1=
EXTT2=
EXTT3=
EXTT4=
EXTT5=
EXTT6=
EXTT7=
PLAYORDER=
